solid 
 facet normal  0.000000e+00  0.000000e+00  1.000000e+00
   outer loop
     vertex  6.000000e-01  6.000000e-01  9.000000e-01
     vertex  0.000000e+00  6.000000e-01  9.000000e-01
     vertex  0.000000e+00  0.000000e+00  9.000000e-01
   endloop
 endfacet
 facet normal  0.000000e+00  0.000000e+00  1.000000e+00
   outer loop
     vertex  6.000000e-01  6.000000e-01  9.000000e-01
     vertex  0.000000e+00  0.000000e+00  9.000000e-01
     vertex  6.000000e-01  0.000000e+00  9.000000e-01
   endloop
 endfacet
endsolid
