solid 
 facet normal  1.167813e-02  1.205285e-01  9.926412e-01
   outer loop
     vertex  2.300000e+00  3.191500e-01  1.377148e-01
     vertex  6.000000e-01  3.000000e-01  1.600400e-01
     vertex  2.300000e+00  3.000000e-01  1.400400e-01
   endloop
 endfacet
 facet normal  1.167813e-02  1.205285e-01  9.926412e-01
   outer loop
     vertex  2.300000e+00  3.191500e-01  1.377148e-01
     vertex  6.000000e-01  3.191500e-01  1.577148e-01
     vertex  6.000000e-01  3.000000e-01  1.600400e-01
   endloop
 endfacet
 facet normal  1.099953e-02  3.545834e-01  9.349597e-01
   outer loop
     vertex  2.300000e+00  3.371871e-01  1.308742e-01
     vertex  6.000000e-01  3.191500e-01  1.577148e-01
     vertex  2.300000e+00  3.191500e-01  1.377148e-01
   endloop
 endfacet
 facet normal  1.099953e-02  3.545834e-01  9.349597e-01
   outer loop
     vertex  2.300000e+00  3.371871e-01  1.308742e-01
     vertex  6.000000e-01  3.371871e-01  1.508742e-01
     vertex  6.000000e-01  3.191500e-01  1.577148e-01
   endloop
 endfacet
 facet normal  9.681709e-03  5.680381e-01  8.229453e-01
   outer loop
     vertex  2.300000e+00  3.530631e-01  1.199158e-01
     vertex  6.000000e-01  3.530631e-01  1.399158e-01
     vertex  6.000000e-01  3.371871e-01  1.508742e-01
   endloop
 endfacet
 facet normal  9.681709e-03  5.680381e-01  8.229453e-01
   outer loop
     vertex  2.300000e+00  3.530631e-01  1.199158e-01
     vertex  6.000000e-01  3.371871e-01  1.508742e-01
     vertex  2.300000e+00  3.371871e-01  1.308742e-01
   endloop
 endfacet
 facet normal  7.801206e-03  7.484880e-01  6.631025e-01
   outer loop
     vertex  2.300000e+00  3.658552e-01  1.054765e-01
     vertex  6.000000e-01  3.530631e-01  1.399158e-01
     vertex  2.300000e+00  3.530631e-01  1.199158e-01
   endloop
 endfacet
 facet normal  7.801206e-03  7.484880e-01  6.631025e-01
   outer loop
     vertex  2.300000e+00  3.658552e-01  1.054765e-01
     vertex  6.000000e-01  3.658552e-01  1.254765e-01
     vertex  6.000000e-01  3.530631e-01  1.399158e-01
   endloop
 endfacet
 facet normal  5.467250e-03  8.854428e-01  4.647162e-01
   outer loop
     vertex  2.300000e+00  3.748200e-01  8.839548e-02
     vertex  6.000000e-01  3.748200e-01  1.083955e-01
     vertex  6.000000e-01  3.658552e-01  1.254765e-01
   endloop
 endfacet
 facet normal  5.467250e-03  8.854428e-01  4.647162e-01
   outer loop
     vertex  2.300000e+00  3.748200e-01  8.839548e-02
     vertex  6.000000e-01  3.658552e-01  1.254765e-01
     vertex  2.300000e+00  3.658552e-01  1.054765e-01
   endloop
 endfacet
 facet normal  2.815467e-03  9.709380e-01  2.393147e-01
   outer loop
     vertex  2.300000e+00  3.794366e-01  6.966535e-02
     vertex  6.000000e-01  3.748200e-01  1.083955e-01
     vertex  2.300000e+00  3.748200e-01  8.839548e-02
   endloop
 endfacet
 facet normal  2.815467e-03  9.709380e-01  2.393147e-01
   outer loop
     vertex  2.300000e+00  3.794366e-01  6.966535e-02
     vertex  6.000000e-01  3.794366e-01  8.966535e-02
     vertex  6.000000e-01  3.748200e-01  1.083955e-01
   endloop
 endfacet
 facet normal  0.000000e+00  1.000000e+00  0.000000e+00
   outer loop
     vertex  2.300000e+00  3.794366e-01  5.037465e-02
     vertex  6.000000e-01  3.794366e-01  7.037465e-02
     vertex  6.000000e-01  3.794366e-01  8.966535e-02
   endloop
 endfacet
 facet normal  0.000000e+00  1.000000e+00 -0.000000e+00
   outer loop
     vertex  2.300000e+00  3.794366e-01  5.037465e-02
     vertex  6.000000e-01  3.794366e-01  8.966535e-02
     vertex  2.300000e+00  3.794366e-01  6.966535e-02
   endloop
 endfacet
 facet normal -2.815467e-03  9.709380e-01 -2.393147e-01
   outer loop
     vertex  2.300000e+00  3.748200e-01  3.164452e-02
     vertex  6.000000e-01  3.794366e-01  7.037465e-02
     vertex  2.300000e+00  3.794366e-01  5.037465e-02
   endloop
 endfacet
 facet normal -2.815467e-03  9.709380e-01 -2.393147e-01
   outer loop
     vertex  2.300000e+00  3.748200e-01  3.164452e-02
     vertex  6.000000e-01  3.748200e-01  5.164452e-02
     vertex  6.000000e-01  3.794366e-01  7.037465e-02
   endloop
 endfacet
 facet normal -5.467250e-03  8.854428e-01 -4.647162e-01
   outer loop
     vertex  2.300000e+00  3.658552e-01  1.456346e-02
     vertex  6.000000e-01  3.658552e-01  3.456346e-02
     vertex  6.000000e-01  3.748200e-01  5.164452e-02
   endloop
 endfacet
 facet normal -5.467250e-03  8.854428e-01 -4.647162e-01
   outer loop
     vertex  2.300000e+00  3.658552e-01  1.456346e-02
     vertex  6.000000e-01  3.748200e-01  5.164452e-02
     vertex  2.300000e+00  3.748200e-01  3.164452e-02
   endloop
 endfacet
 facet normal -7.801206e-03  7.484880e-01 -6.631025e-01
   outer loop
     vertex  2.300000e+00  3.530631e-01  1.241699e-04
     vertex  6.000000e-01  3.530631e-01  2.012417e-02
     vertex  6.000000e-01  3.658552e-01  3.456346e-02
   endloop
 endfacet
 facet normal -7.801206e-03  7.484880e-01 -6.631025e-01
   outer loop
     vertex  2.300000e+00  3.530631e-01  1.241699e-04
     vertex  6.000000e-01  3.658552e-01  3.456346e-02
     vertex  2.300000e+00  3.658552e-01  1.456346e-02
   endloop
 endfacet
 facet normal -9.681709e-03  5.680381e-01 -8.229453e-01
   outer loop
     vertex  2.300000e+00  3.371871e-01 -1.083419e-02
     vertex  6.000000e-01  3.371871e-01  9.165809e-03
     vertex  6.000000e-01  3.530631e-01  2.012417e-02
   endloop
 endfacet
 facet normal -9.681709e-03  5.680381e-01 -8.229453e-01
   outer loop
     vertex  2.300000e+00  3.371871e-01 -1.083419e-02
     vertex  6.000000e-01  3.530631e-01  2.012417e-02
     vertex  2.300000e+00  3.530631e-01  1.241699e-04
   endloop
 endfacet
 facet normal -1.099953e-02  3.545834e-01 -9.349597e-01
   outer loop
     vertex  2.300000e+00  3.191500e-01 -1.767476e-02
     vertex  6.000000e-01  3.371871e-01  9.165809e-03
     vertex  2.300000e+00  3.371871e-01 -1.083419e-02
   endloop
 endfacet
 facet normal -1.099953e-02  3.545834e-01 -9.349597e-01
   outer loop
     vertex  2.300000e+00  3.191500e-01 -1.767476e-02
     vertex  6.000000e-01  3.191500e-01  2.325236e-03
     vertex  6.000000e-01  3.371871e-01  9.165809e-03
   endloop
 endfacet
 facet normal -1.167813e-02  1.205285e-01 -9.926412e-01
   outer loop
     vertex  2.300000e+00  3.000000e-01 -2.000000e-02
     vertex  6.000000e-01  3.191500e-01  2.325236e-03
     vertex  2.300000e+00  3.191500e-01 -1.767476e-02
   endloop
 endfacet
 facet normal -1.167813e-02  1.205285e-01 -9.926412e-01
   outer loop
     vertex  2.300000e+00  3.000000e-01 -2.000000e-02
     vertex  6.000000e-01  3.000000e-01 -6.938894e-18
     vertex  6.000000e-01  3.191500e-01  2.325236e-03
   endloop
 endfacet
 facet normal -1.167813e-02 -1.205285e-01 -9.926412e-01
   outer loop
     vertex  2.300000e+00  2.808500e-01 -1.767476e-02
     vertex  6.000000e-01  2.808500e-01  2.325236e-03
     vertex  6.000000e-01  3.000000e-01 -6.938894e-18
   endloop
 endfacet
 facet normal -1.167813e-02 -1.205285e-01 -9.926412e-01
   outer loop
     vertex  2.300000e+00  2.808500e-01 -1.767476e-02
     vertex  6.000000e-01  3.000000e-01 -6.938894e-18
     vertex  2.300000e+00  3.000000e-01 -2.000000e-02
   endloop
 endfacet
 facet normal -1.099953e-02 -3.545834e-01 -9.349597e-01
   outer loop
     vertex  2.300000e+00  2.628129e-01 -1.083419e-02
     vertex  6.000000e-01  2.628129e-01  9.165809e-03
     vertex  6.000000e-01  2.808500e-01  2.325236e-03
   endloop
 endfacet
 facet normal -1.099953e-02 -3.545834e-01 -9.349597e-01
   outer loop
     vertex  2.300000e+00  2.628129e-01 -1.083419e-02
     vertex  6.000000e-01  2.808500e-01  2.325236e-03
     vertex  2.300000e+00  2.808500e-01 -1.767476e-02
   endloop
 endfacet
 facet normal -9.681709e-03 -5.680381e-01 -8.229453e-01
   outer loop
     vertex  2.300000e+00  2.469369e-01  1.241699e-04
     vertex  6.000000e-01  2.469369e-01  2.012417e-02
     vertex  6.000000e-01  2.628129e-01  9.165809e-03
   endloop
 endfacet
 facet normal -9.681709e-03 -5.680381e-01 -8.229453e-01
   outer loop
     vertex  2.300000e+00  2.469369e-01  1.241699e-04
     vertex  6.000000e-01  2.628129e-01  9.165809e-03
     vertex  2.300000e+00  2.628129e-01 -1.083419e-02
   endloop
 endfacet
 facet normal -7.801206e-03 -7.484880e-01 -6.631025e-01
   outer loop
     vertex  2.300000e+00  2.341448e-01  1.456346e-02
     vertex  6.000000e-01  2.341448e-01  3.456346e-02
     vertex  6.000000e-01  2.469369e-01  2.012417e-02
   endloop
 endfacet
 facet normal -7.801206e-03 -7.484880e-01 -6.631025e-01
   outer loop
     vertex  2.300000e+00  2.341448e-01  1.456346e-02
     vertex  6.000000e-01  2.469369e-01  2.012417e-02
     vertex  2.300000e+00  2.469369e-01  1.241699e-04
   endloop
 endfacet
 facet normal -5.467250e-03 -8.854428e-01 -4.647162e-01
   outer loop
     vertex  2.300000e+00  2.251800e-01  3.164452e-02
     vertex  6.000000e-01  2.251800e-01  5.164452e-02
     vertex  6.000000e-01  2.341448e-01  3.456346e-02
   endloop
 endfacet
 facet normal -5.467250e-03 -8.854428e-01 -4.647162e-01
   outer loop
     vertex  2.300000e+00  2.251800e-01  3.164452e-02
     vertex  6.000000e-01  2.341448e-01  3.456346e-02
     vertex  2.300000e+00  2.341448e-01  1.456346e-02
   endloop
 endfacet
 facet normal -2.815467e-03 -9.709380e-01 -2.393147e-01
   outer loop
     vertex  2.300000e+00  2.205634e-01  5.037465e-02
     vertex  6.000000e-01  2.205634e-01  7.037465e-02
     vertex  6.000000e-01  2.251800e-01  5.164452e-02
   endloop
 endfacet
 facet normal -2.815467e-03 -9.709380e-01 -2.393147e-01
   outer loop
     vertex  2.300000e+00  2.205634e-01  5.037465e-02
     vertex  6.000000e-01  2.251800e-01  5.164452e-02
     vertex  2.300000e+00  2.251800e-01  3.164452e-02
   endloop
 endfacet
 facet normal -1.692714e-17 -1.000000e+00 -1.438807e-15
   outer loop
     vertex  2.300000e+00  2.205634e-01  6.966535e-02
     vertex  6.000000e-01  2.205634e-01  8.966535e-02
     vertex  6.000000e-01  2.205634e-01  7.037465e-02
   endloop
 endfacet
 facet normal -1.752747e-17 -1.000000e+00 -2.877614e-15
   outer loop
     vertex  2.300000e+00  2.205634e-01  6.966535e-02
     vertex  6.000000e-01  2.205634e-01  7.037465e-02
     vertex  2.300000e+00  2.205634e-01  5.037465e-02
   endloop
 endfacet
 facet normal  2.815467e-03 -9.709380e-01  2.393147e-01
   outer loop
     vertex  2.300000e+00  2.251800e-01  8.839548e-02
     vertex  6.000000e-01  2.251800e-01  1.083955e-01
     vertex  6.000000e-01  2.205634e-01  8.966535e-02
   endloop
 endfacet
 facet normal  2.815467e-03 -9.709380e-01  2.393147e-01
   outer loop
     vertex  2.300000e+00  2.251800e-01  8.839548e-02
     vertex  6.000000e-01  2.205634e-01  8.966535e-02
     vertex  2.300000e+00  2.205634e-01  6.966535e-02
   endloop
 endfacet
 facet normal  5.467250e-03 -8.854428e-01  4.647162e-01
   outer loop
     vertex  2.300000e+00  2.341448e-01  1.054765e-01
     vertex  6.000000e-01  2.341448e-01  1.254765e-01
     vertex  6.000000e-01  2.251800e-01  1.083955e-01
   endloop
 endfacet
 facet normal  5.467250e-03 -8.854428e-01  4.647162e-01
   outer loop
     vertex  2.300000e+00  2.341448e-01  1.054765e-01
     vertex  6.000000e-01  2.251800e-01  1.083955e-01
     vertex  2.300000e+00  2.251800e-01  8.839548e-02
   endloop
 endfacet
 facet normal  7.801206e-03 -7.484880e-01  6.631025e-01
   outer loop
     vertex  2.300000e+00  2.469369e-01  1.199158e-01
     vertex  6.000000e-01  2.469369e-01  1.399158e-01
     vertex  6.000000e-01  2.341448e-01  1.254765e-01
   endloop
 endfacet
 facet normal  7.801206e-03 -7.484880e-01  6.631025e-01
   outer loop
     vertex  2.300000e+00  2.469369e-01  1.199158e-01
     vertex  6.000000e-01  2.341448e-01  1.254765e-01
     vertex  2.300000e+00  2.341448e-01  1.054765e-01
   endloop
 endfacet
 facet normal  9.681709e-03 -5.680381e-01  8.229453e-01
   outer loop
     vertex  2.300000e+00  2.628129e-01  1.308742e-01
     vertex  6.000000e-01  2.628129e-01  1.508742e-01
     vertex  6.000000e-01  2.469369e-01  1.399158e-01
   endloop
 endfacet
 facet normal  9.681709e-03 -5.680381e-01  8.229453e-01
   outer loop
     vertex  2.300000e+00  2.628129e-01  1.308742e-01
     vertex  6.000000e-01  2.469369e-01  1.399158e-01
     vertex  2.300000e+00  2.469369e-01  1.199158e-01
   endloop
 endfacet
 facet normal  1.099953e-02 -3.545834e-01  9.349597e-01
   outer loop
     vertex  2.300000e+00  2.808500e-01  1.377148e-01
     vertex  6.000000e-01  2.808500e-01  1.577148e-01
     vertex  6.000000e-01  2.628129e-01  1.508742e-01
   endloop
 endfacet
 facet normal  1.099953e-02 -3.545834e-01  9.349597e-01
   outer loop
     vertex  2.300000e+00  2.808500e-01  1.377148e-01
     vertex  6.000000e-01  2.628129e-01  1.508742e-01
     vertex  2.300000e+00  2.628129e-01  1.308742e-01
   endloop
 endfacet
 facet normal  1.167813e-02 -1.205285e-01  9.926412e-01
   outer loop
     vertex  2.300000e+00  3.000000e-01  1.400400e-01
     vertex  6.000000e-01  3.000000e-01  1.600400e-01
     vertex  6.000000e-01  2.808500e-01  1.577148e-01
   endloop
 endfacet
 facet normal  1.167813e-02 -1.205285e-01  9.926412e-01
   outer loop
     vertex  2.300000e+00  3.000000e-01  1.400400e-01
     vertex  6.000000e-01  2.808500e-01  1.577148e-01
     vertex  2.300000e+00  2.808500e-01  1.377148e-01
   endloop
 endfacet
endsolid
